<svg width="20" height="20" viewBox="0 0 20 20" fill="none" xmlns="http://www.w3.org/2000/svg">
<g clip-path="url(#clip0_19_36)">
<path d="M6.99414 14.612V19.25C6.99427 19.4079 7.04425 19.5618 7.13696 19.6896C7.22967 19.8175 7.36038 19.9128 7.51045 19.962C7.66052 20.0113 7.82229 20.0118 7.97271 19.9637C8.12313 19.9156 8.25452 19.8212 8.34814 19.694L11.0611 16L6.99414 14.612Z" fill="white"/>
<path d="M19.7371 0.117999C19.6437 0.0498252 19.533 0.00934857 19.4177 0.00121237C19.3024 -0.00692383 19.1871 0.0176099 19.0851 0.0719994L0.336056 10.06C0.227325 10.1191 0.13797 10.2084 0.0787168 10.317C0.019464 10.4257 -0.00716804 10.5492 0.00201779 10.6726C0.0112036 10.796 0.0558169 10.9142 0.130502 11.0129C0.205187 11.1116 0.30677 11.1866 0.423056 11.229L5.63506 13.046L16.7351 3.365L8.14606 13.92L16.8821 16.966C16.9464 16.9881 17.014 16.9996 17.0821 17C17.1969 16.9998 17.3095 16.9676 17.4071 16.907C17.4855 16.8576 17.5524 16.7919 17.6029 16.7142C17.6535 16.6365 17.6867 16.5487 17.7001 16.457L19.9931 0.731999C20.0103 0.616048 19.9956 0.497586 19.9505 0.389386C19.9054 0.281185 19.8316 0.187351 19.7371 0.117999Z" fill="white"/>
</g>
<defs>
<clipPath id="clip0_19_36">
<rect width="20" height="20" fill="white"/>
</clipPath>
</defs>
</svg>
