<svg width="202" height="171" viewBox="0 0 202 171" fill="none" xmlns="http://www.w3.org/2000/svg">
<path d="M63.1155 80.3333C77.8431 80.3333 89.7822 68.3943 89.7822 53.6667C89.7822 38.9391 77.8431 27 63.1155 27C48.3879 27 36.4489 38.9391 36.4489 53.6667C36.4489 68.3943 48.3879 80.3333 63.1155 80.3333Z" stroke="#637381" stroke-width="10.6667" stroke-linecap="round"/>
<path d="M103.306 59.0002C106.136 54.1003 110.796 50.5248 116.261 49.0605C121.726 47.5961 127.549 48.3627 132.449 51.1917C137.349 54.0207 140.925 58.6802 142.389 64.1454C143.853 69.6106 143.087 75.4333 140.258 80.3336C137.428 85.2338 132.769 88.8093 127.303 90.2738C121.839 91.7373 116.016 90.9714 111.116 88.1426C106.215 85.3128 102.64 80.6536 101.175 75.188C99.7118 69.7232 100.478 63.9002 103.306 59.0002Z" stroke="#637381" stroke-width="10.6667"/>
<path d="M111.115 160.333H15.1157V171H111.115V160.333ZM10.725 155.914C12.1097 147.232 15.4396 134.891 23.2644 124.824C30.8951 115.008 43.0484 107 63.1157 107V96.3335C39.6604 96.3335 24.435 105.938 14.8426 118.278C5.44444 130.37 1.70673 144.732 0.19142 154.234L10.725 155.914ZM63.1157 107C83.183 107 95.3363 115.008 102.967 124.824C110.792 134.891 114.121 147.232 115.507 155.914L126.04 154.234C124.525 144.732 120.787 130.37 111.389 118.278C101.796 105.938 86.5715 96.3335 63.1157 96.3335V107ZM15.1157 160.333C12.0037 160.333 10.3898 158.016 10.725 155.914L0.19142 154.234C-1.32911 163.768 6.44561 171 15.1157 171V160.333ZM111.115 171C119.785 171 127.56 163.768 126.04 154.234L115.507 155.914C115.842 158.016 114.228 160.333 111.115 160.333V171Z" fill="#637381"/>
<path d="M103.653 117.462L100.794 112.958L95.3 116.445L99.7993 121.148L103.653 117.462ZM152.663 160.333H111.116V171H152.663V160.333ZM157.106 155.402C157.68 157.694 155.997 160.333 152.663 160.333V171C161.951 171 169.944 162.762 167.453 152.811L157.106 155.402ZM121.783 117.667C132.745 117.667 140.445 123.029 146.085 130.54C151.839 138.203 155.217 147.86 157.106 155.402L167.453 152.811C165.414 144.669 161.6 133.439 154.615 124.136C147.517 114.683 136.931 107 121.783 107V117.667ZM106.511 121.964C110.669 119.326 115.662 117.667 121.783 117.667V107C113.59 107 106.622 109.26 100.794 112.958L106.511 121.964ZM99.7993 121.148C109.903 131.71 113.939 146.089 115.506 155.914L126.04 154.234C124.339 143.571 119.817 126.644 107.507 113.774L99.7993 121.148ZM115.506 155.914C115.842 158.015 114.228 160.333 111.116 160.333V171C119.785 171 127.56 163.768 126.04 154.234L115.506 155.914Z" fill="#637381"/>
<path d="M196.449 24.3335H153.782C152.309 24.3335 151.115 25.5274 151.115 27.0002C151.115 28.4729 152.309 29.6668 153.782 29.6668H196.449C197.922 29.6668 199.115 28.4729 199.115 27.0002C199.115 25.5274 197.922 24.3335 196.449 24.3335Z" stroke="#637381" stroke-width="5.33333" stroke-linecap="round"/>
<path d="M177.782 48.3333V5.66667C177.782 4.19391 176.588 3 175.115 3C173.643 3 172.449 4.19391 172.449 5.66667V48.3333C172.449 49.8061 173.643 51 175.115 51C176.588 51 177.782 49.8061 177.782 48.3333Z" stroke="#637381" stroke-width="5.33333" stroke-linecap="round"/>
</svg>
