<svg width="146" height="151" viewBox="0 0 146 151" fill="none" xmlns="http://www.w3.org/2000/svg">
<path d="M140.742 16.5934H129.127V4.97801C129.127 3.65776 128.602 2.39159 127.669 1.45803C126.735 0.524467 125.469 0 124.149 0C122.828 0 121.562 0.524467 120.629 1.45803C119.695 2.39159 119.171 3.65776 119.171 4.97801V16.5934H107.555C106.235 16.5934 104.969 17.1179 104.035 18.0514C103.102 18.985 102.577 20.2511 102.577 21.5714C102.577 22.8917 103.102 24.1578 104.035 25.0914C104.969 26.0249 106.235 26.5494 107.555 26.5494H119.171V38.1648C119.171 39.485 119.695 40.7512 120.629 41.6848C121.562 42.6183 122.828 43.1428 124.149 43.1428C125.469 43.1428 126.735 42.6183 127.669 41.6848C128.602 40.7512 129.127 39.485 129.127 38.1648V26.5494H140.742C142.062 26.5494 143.328 26.0249 144.262 25.0914C145.196 24.1578 145.72 22.8917 145.72 21.5714C145.72 20.2511 145.196 18.985 144.262 18.0514C143.328 17.1179 142.062 16.5934 140.742 16.5934Z" fill="#637381"/>
<path d="M92 43.5C92 37.4677 90.2112 31.5708 86.8598 26.5551C83.5084 21.5394 78.745 17.6302 73.1718 15.3217C67.5987 13.0132 61.4662 12.4092 55.5498 13.5861C49.6333 14.7629 44.1988 17.6678 39.9333 21.9333C35.6678 26.1988 32.7629 31.6333 31.5861 37.5498C30.4092 43.4662 31.0132 49.5987 33.3217 55.1718C35.6302 60.745 39.5394 65.5084 44.5551 68.8598C49.5708 72.2112 55.4677 74 61.5 74C69.5863 73.9907 77.3386 70.7743 83.0565 65.0565C88.7743 59.3386 91.9907 51.5863 92 43.5ZM39.7143 43.5C39.7143 39.1912 40.992 34.9792 43.3859 31.3965C45.7797 27.8139 49.1822 25.0215 53.163 23.3726C57.1438 21.7237 61.5242 21.2923 65.7502 22.1329C69.9762 22.9735 73.858 25.0484 76.9048 28.0952C79.9516 31.142 82.0265 35.0238 82.8671 39.2498C83.7077 43.4758 83.2763 47.8562 81.6274 51.837C79.9785 55.8179 77.1861 59.2203 73.6035 61.6142C70.0209 64.008 65.8088 65.2857 61.5 65.2857C55.7242 65.2789 50.1868 62.9815 46.1027 58.8973C42.0185 54.8132 39.7211 49.2759 39.7143 43.5Z" fill="#637381"/>
<path d="M0 133.452C0.00597777 138.105 2.34444 142.565 6.50222 145.855C10.66 149.145 16.2974 150.995 22.1774 151H102.823C108.703 150.995 114.34 149.145 118.498 145.855C122.656 142.565 124.994 138.105 125 133.452C125 120.337 118.415 107.758 106.694 98.4843C94.9732 89.2101 79.076 84 62.5 84C45.924 84 30.0268 89.2101 18.3058 98.4843C6.5848 107.758 2.47002e-07 120.337 0 133.452ZM62.5 93.5714C75.8632 93.5833 88.6748 97.7888 98.124 105.265C107.573 112.742 112.888 122.879 112.903 133.452C112.901 135.567 111.838 137.595 109.948 139.09C108.058 140.586 105.495 141.427 102.823 141.429H22.1774C19.5046 141.427 16.942 140.586 15.0521 139.09C13.1621 137.595 12.0993 135.567 12.0968 133.452C12.1117 122.879 17.4268 112.742 26.876 105.265C36.3252 97.7888 49.1368 93.5833 62.5 93.5714Z" fill="#637381"/>
</svg>
