<svg width="20" height="16" viewBox="0 0 20 16" fill="none" xmlns="http://www.w3.org/2000/svg">
<path d="M10.0013 0C4.47858 0 0.00259217 3.29036 0.00259217 7.35119C0.00259217 9.03348 0.779835 10.5744 2.06873 11.8149C1.48677 13.2074 0.275994 14.3878 0.256466 14.402C-0.00131357 14.6494 -0.071617 15.0099 0.0768013 15.3209C0.22522 15.6319 0.565019 15.8333 0.939971 15.8333C3.342 15.8333 5.23629 14.925 6.37286 14.197C7.50162 14.5186 8.72021 14.7024 10.0013 14.7024C15.524 14.7024 20 11.412 20 7.35119C20 3.29036 15.524 0 10.0013 0ZM10.0013 13.006C8.95846 13.006 7.92735 12.861 6.93919 12.5783L6.05259 12.3238L5.29097 12.8116C4.73245 13.1685 3.96692 13.5679 3.04517 13.8365C3.33029 13.4089 3.60759 12.9282 3.82241 12.4157L4.23642 11.4226L3.43184 10.6522C2.7249 9.97005 1.87735 8.84263 1.87735 7.35119C1.87735 4.234 5.52141 1.69643 10.0013 1.69643C14.4812 1.69643 18.1252 4.234 18.1252 7.35119C18.1252 10.4684 14.4812 13.006 10.0013 13.006Z" fill="black"/>
</svg>
