<svg width="29" height="23" viewBox="0 0 29 23" fill="none" xmlns="http://www.w3.org/2000/svg">
<path d="M14.5019 0C6.49393 0 0.00375865 4.77969 0.00375865 10.6786C0.00375865 13.1223 1.13076 15.3607 2.99966 17.1627C2.15582 19.1855 0.400192 20.9002 0.371875 20.9208C-0.00190468 21.2801 -0.103845 21.8038 0.111362 22.2556C0.326568 22.7074 0.819278 23 1.36296 23C4.8459 23 7.59262 21.6806 9.24065 20.623C10.8774 21.0902 12.6443 21.3571 14.5019 21.3571C22.5098 21.3571 29 16.5775 29 10.6786C29 4.77969 22.5098 0 14.5019 0ZM14.5019 18.8929C12.9898 18.8929 11.4947 18.6824 10.0618 18.2717L8.77625 17.902L7.67191 18.6105C6.86205 19.129 5.75204 19.7092 4.41549 20.0993C4.82891 19.4781 5.23101 18.7799 5.54249 18.0355L6.14281 16.5929L4.97616 15.4737C3.9511 14.4828 2.72216 12.8451 2.72216 10.6786C2.72216 6.15045 8.00604 2.46429 14.5019 2.46429C20.9977 2.46429 26.2816 6.15045 26.2816 10.6786C26.2816 15.2067 20.9977 18.8929 14.5019 18.8929Z" fill="#ED711A"/>
</svg>
