<svg width="23" height="20" viewBox="0 0 23 20" fill="none" xmlns="http://www.w3.org/2000/svg">
<path d="M10.6001 8.9999V1.9999C10.6001 1.39239 10.1076 0.899902 9.5001 0.899902L2.5001 0.899902C1.89258 0.899902 1.4001 1.39239 1.4001 1.9999V8.9999C1.4001 9.60742 1.89258 10.0999 2.5001 10.0999H9.5001C10.1076 10.0999 10.6001 9.60742 10.6001 8.9999Z" stroke="black" stroke-width="1.8"/>
<path d="M21.6001 17.9999V1.9999C21.6001 1.39239 21.1076 0.899902 20.5001 0.899902L15.5001 0.899902C14.8926 0.899902 14.4001 1.39239 14.4001 1.9999V17.9999C14.4001 18.6074 14.8926 19.0999 15.5001 19.0999H20.5001C21.1076 19.0999 21.6001 18.6074 21.6001 17.9999Z" stroke="black" stroke-width="1.8"/>
<path d="M10.6001 17.9999V14.9999C10.6001 14.3924 10.1076 13.8999 9.5001 13.8999H2.5001C1.89258 13.8999 1.4001 14.3924 1.4001 14.9999V17.9999C1.4001 18.6074 1.89258 19.0999 2.5001 19.0999H9.5001C10.1076 19.0999 10.6001 18.6074 10.6001 17.9999Z" stroke="black" stroke-width="1.8"/>
</svg>
