<svg width="18" height="22" viewBox="0 0 18 22" fill="none" xmlns="http://www.w3.org/2000/svg">
<g clip-path="url(#clip0_62_484)">
<path d="M7.834 11C8.07183 11.0079 8.29729 11.1079 8.46276 11.2789C8.62822 11.4499 8.72072 11.6785 8.72072 11.9165C8.72072 12.1545 8.62822 12.3831 8.46276 12.5541C8.29729 12.7251 8.07183 12.8251 7.834 12.833H5.084C4.9611 12.8371 4.83863 12.8164 4.72389 12.7721C4.60915 12.7279 4.50448 12.661 4.4161 12.5755C4.32772 12.49 4.25745 12.3876 4.20945 12.2744C4.16146 12.1612 4.13672 12.0395 4.13672 11.9165C4.13672 11.7935 4.16146 11.6718 4.20945 11.5586C4.25745 11.4454 4.32772 11.343 4.4161 11.2575C4.50448 11.172 4.60915 11.1051 4.72389 11.0609C4.83863 11.0166 4.9611 10.9959 5.084 11H7.834ZM13.334 8.25C13.334 8.0068 13.2374 7.77355 13.0654 7.60158C12.8934 7.42961 12.6602 7.333 12.417 7.333H5.084C4.9611 7.32894 4.83863 7.34964 4.72389 7.39387C4.60915 7.4381 4.50448 7.50496 4.4161 7.59047C4.32772 7.67597 4.25745 7.77838 4.20945 7.8916C4.16146 8.00481 4.13672 8.12653 4.13672 8.2495C4.13672 8.37247 4.16146 8.49419 4.20945 8.6074C4.25745 8.72062 4.32772 8.82303 4.4161 8.90854C4.50448 8.99404 4.60915 9.0609 4.72389 9.10513C4.83863 9.14936 4.9611 9.17006 5.084 9.166H12.418C12.6607 9.16574 12.8934 9.06928 13.0651 8.89777C13.2368 8.72626 13.3335 8.49368 13.334 8.251V8.25ZM5.084 5.5H12.418C12.6558 5.49214 12.8813 5.39214 13.0468 5.22112C13.2122 5.0501 13.3047 4.82146 13.3047 4.5835C13.3047 4.34554 13.2122 4.1169 13.0468 3.94588C12.8813 3.77486 12.6558 3.67486 12.418 3.667H5.084C4.9611 3.66294 4.83863 3.68364 4.72389 3.72787C4.60915 3.7721 4.50448 3.83896 4.4161 3.92447C4.32772 4.00997 4.25745 4.11238 4.20945 4.2256C4.16146 4.33881 4.13672 4.46053 4.13672 4.5835C4.13672 4.70647 4.16146 4.82819 4.20945 4.9414C4.25745 5.05462 4.32772 5.15703 4.4161 5.24253C4.50448 5.32804 4.60915 5.3949 4.72389 5.43913C4.83863 5.48336 4.9611 5.50406 5.084 5.5ZM16.084 17.825V21.339C16.084 21.4697 16.0453 21.5975 15.9728 21.7062C15.9002 21.8149 15.797 21.8997 15.6763 21.9497C15.5556 21.9998 15.4227 22.013 15.2945 21.9876C15.1663 21.9622 15.0485 21.8993 14.956 21.807L14.256 21.107L13.556 21.807C13.4635 21.8993 13.3457 21.9622 13.2175 21.9876C13.0893 22.013 12.9564 21.9998 12.8357 21.9497C12.715 21.8997 12.6118 21.8149 12.5392 21.7062C12.4667 21.5975 12.428 21.4697 12.428 21.339V17.825C11.7292 17.4239 11.1825 16.8032 10.8729 16.0594C10.5634 15.3155 10.5083 14.4902 10.7162 13.7118C10.9241 12.9334 11.3834 12.2455 12.0226 11.7551C12.6619 11.2646 13.4453 10.9992 14.251 11C14.561 11.0038 14.8692 11.0475 15.168 11.13V4.584C15.168 3.85465 14.8783 3.15518 14.3625 2.63946C13.8468 2.12373 13.1473 1.834 12.418 1.834H5.084C4.35465 1.834 3.65518 2.12373 3.13946 2.63946C2.62373 3.15518 2.334 3.85465 2.334 4.584V15.584C2.334 16.3133 2.62373 17.0128 3.13946 17.5285C3.65518 18.0443 4.35465 18.334 5.084 18.334H9.668C9.90583 18.3419 10.1313 18.4419 10.2968 18.6129C10.4622 18.7839 10.5547 19.0125 10.5547 19.2505C10.5547 19.4885 10.4622 19.7171 10.2968 19.8881C10.1313 20.0591 9.90583 20.1591 9.668 20.167H5.084C3.86883 20.1657 2.70379 19.6824 1.84444 18.8233C0.985086 17.9641 0.501588 16.7992 0.5 15.584V4.584C0.501323 3.36865 0.984704 2.20346 1.84408 1.34408C2.70346 0.484704 3.86865 0.00132348 5.084 0L12.418 0C13.633 0.00185263 14.7977 0.485467 15.6566 1.34479C16.5156 2.20411 16.9987 3.369 17 4.584V12.268C17.3591 12.6713 17.6234 13.1497 17.7736 13.6684C17.9239 14.187 17.9562 14.7327 17.8683 15.2654C17.7804 15.7982 17.5744 16.3045 17.2655 16.7474C16.9566 17.1903 16.5536 17.5585 16.084 17.825ZM16.084 14.668C16.0842 14.3054 15.9769 13.9509 15.7756 13.6494C15.5743 13.3478 15.2881 13.1127 14.9532 12.9738C14.6182 12.8349 14.2496 12.7985 13.894 12.8691C13.5384 12.9397 13.2117 13.1142 12.9552 13.3705C12.6988 13.6268 12.5241 13.9534 12.4533 14.309C12.3825 14.6646 12.4187 15.0332 12.5574 15.3682C12.6961 15.7032 12.9311 15.9896 13.2325 16.191C13.534 16.3925 13.8884 16.5 14.251 16.5C14.737 16.5 15.203 16.307 15.5468 15.9635C15.8905 15.6199 16.0837 15.154 16.084 14.668Z" fill="black"/>
</g>
<defs>
<clipPath id="clip0_62_484">
<rect width="17.418" height="22" fill="white" transform="translate(0.5)"/>
</clipPath>
</defs>
</svg>
