<svg width="25" height="24" viewBox="0 0 25 24" fill="none" xmlns="http://www.w3.org/2000/svg">
<path d="M21.8585 14.3141L21.8046 13.7752L21.787 13.7769L21.7694 13.7798L21.8585 14.3141ZM21.8585 14.3141L21.9124 14.8532L21.9301 14.8513L21.9475 14.8484L21.8585 14.3141ZM17.4811 20.2533L17.8242 19.834L17.8195 19.8303L17.4811 20.2533ZM17.4811 20.2533L17.1381 20.6725L17.1427 20.6762L17.4811 20.2533ZM7.51892 20.2538L7.17592 19.8346L7.16734 19.8416L7.15905 19.849L7.51892 20.2538ZM7.51892 20.2538L7.8619 20.673L7.87048 20.666L7.87876 20.6586L7.51892 20.2538ZM3.14168 9.68583V9.14416H3.11466L3.08778 9.14686L3.14168 9.68583ZM3.14168 9.68583L3.14169 10.2275H3.16871L3.19559 10.2249L3.14168 9.68583ZM15.3532 2.58766C15.3303 2.35992 15.3109 2.16274 15.2836 2.0004C15.2555 1.83272 15.2139 1.6668 15.1304 1.50512L14.1677 2.0017C14.1788 2.02344 14.1963 2.0667 14.2152 2.17979C14.2352 2.2982 14.251 2.4534 14.2752 2.69546L15.3532 2.58766ZM15.5643 3.89089C15.5521 3.87482 15.5123 3.80861 15.4706 3.57655C15.4298 3.34966 15.3985 3.04139 15.3532 2.58766L14.2752 2.69546C14.3187 3.131 14.3542 3.48968 14.4044 3.76841C14.4536 4.04198 14.5292 4.32007 14.703 4.54796L15.5643 3.89089ZM16.0672 4.09919C15.8744 4.12513 15.6823 4.04561 15.5643 3.89089L14.703 4.54796C15.0571 5.01215 15.633 5.25069 16.2116 5.17284L16.0672 4.09919ZM17.1381 3.327C16.7851 3.61575 16.5451 3.81165 16.3558 3.94321C16.1621 4.07777 16.0872 4.09649 16.0672 4.09919L16.2116 5.17284C16.4957 5.13464 16.7458 4.99143 16.974 4.8328C17.2065 4.67118 17.4853 4.44262 17.824 4.16545L17.1381 3.327ZM18.061 2.71898C17.8876 2.77433 17.7408 2.86221 17.6024 2.96087C17.4683 3.05639 17.3152 3.18207 17.1381 3.327L17.824 4.16545C18.0123 4.0114 18.1332 3.91284 18.2311 3.84317C18.3244 3.77663 18.3673 3.75837 18.3906 3.75093L18.061 2.71898ZM19.2015 2.77586C18.8408 2.61953 18.4355 2.59931 18.061 2.71898L18.3906 3.75093C18.5154 3.71104 18.6505 3.71778 18.7708 3.76988L19.2015 2.77586ZM20.0593 3.47271C19.8975 3.31086 19.7576 3.17056 19.6336 3.06219C19.5057 2.95025 19.3684 2.84818 19.2015 2.77586L18.7708 3.76988C18.7933 3.77961 18.8341 3.80206 18.9204 3.87756C19.0108 3.95662 19.1213 4.06672 19.2933 4.23873L20.0593 3.47271ZM21.0272 4.44062L20.0593 3.47271L19.2933 4.23873L20.2612 5.20666L21.0272 4.44062ZM21.7242 5.29846C21.6518 5.13154 21.5497 4.99424 21.4378 4.86627C21.3294 4.74237 21.1891 4.60247 21.0272 4.44062L20.2612 5.20666C20.4333 5.37868 20.5433 5.48918 20.6224 5.57955C20.6979 5.66586 20.7203 5.70672 20.7301 5.72918L21.7242 5.29846ZM21.781 6.43903C21.9006 6.06449 21.8805 5.65925 21.7242 5.29846L20.7301 5.72918C20.7822 5.84944 20.7889 5.98451 20.749 6.10936L21.781 6.43903ZM21.173 7.36195C21.3179 7.1848 21.4436 7.03164 21.5391 6.89757C21.6377 6.75909 21.7257 6.61232 21.781 6.43903L20.749 6.10936C20.7416 6.13268 20.7234 6.17556 20.6567 6.26895C20.5871 6.36675 20.4885 6.48765 20.3345 6.67594L21.173 7.36195ZM20.4007 8.43281C20.4035 8.41278 20.4222 8.33788 20.5568 8.14424C20.6883 7.95494 20.8842 7.71488 21.173 7.36195L20.3345 6.67594C20.0573 7.01472 19.8288 7.29343 19.6671 7.526C19.5085 7.75424 19.3653 8.00432 19.3271 8.28839L20.4007 8.43281ZM20.6091 8.93568C20.4543 8.81764 20.3749 8.62568 20.4007 8.43281L19.3271 8.28839C19.2493 8.867 19.4878 9.44289 19.9519 9.79699L20.6091 8.93568ZM21.9123 9.14686C21.4585 9.10149 21.1503 9.07026 20.9234 9.02942C20.6913 8.98766 20.6251 8.94794 20.6091 8.93568L19.9519 9.79699C20.1799 9.97081 20.458 10.0464 20.7315 10.0956C21.0102 10.1458 21.3689 10.1813 21.8045 10.2249L21.9123 9.14686ZM22.9949 9.36953C22.8333 9.28613 22.6673 9.24449 22.4996 9.21633C22.3372 9.18908 22.14 9.16964 21.9123 9.14686L21.8045 10.2249C22.0466 10.249 22.2018 10.2648 22.3202 10.2848C22.4333 10.3037 22.4765 10.3212 22.4983 10.3323L22.9949 9.36953ZM23.7611 10.2162C23.6166 9.85056 23.3444 9.54977 22.9949 9.36953L22.4983 10.3323C22.6148 10.3924 22.7055 10.4927 22.7538 10.6145L23.7611 10.2162ZM23.875 11.3156C23.875 11.0868 23.8753 10.8886 23.8643 10.7243C23.853 10.5546 23.8281 10.3854 23.7611 10.2162L22.7538 10.6145C22.7627 10.6373 22.7757 10.6821 22.7834 10.7965C22.7913 10.9163 22.7917 11.0723 22.7917 11.3156H23.875ZM23.875 12.6846V11.3156H22.7917V12.6846H23.875ZM23.7613 13.7836C23.8281 13.6145 23.853 13.4453 23.8643 13.2756C23.8753 13.1115 23.875 12.9134 23.875 12.6846H22.7917C22.7917 12.9278 22.7913 13.0837 22.7834 13.2035C22.7757 13.3179 22.7627 13.3626 22.7538 13.3854L23.7613 13.7836ZM22.9948 14.6306C23.3443 14.4503 23.6166 14.1493 23.7613 13.7836L22.7538 13.3854C22.7055 13.5074 22.6148 13.6076 22.4983 13.6677L22.9948 14.6306ZM21.9124 14.8532C22.1402 14.8303 22.3372 14.8109 22.4996 14.7836C22.6672 14.7556 22.8332 14.7139 22.9948 14.6306L22.4983 13.6677C22.4765 13.679 22.4333 13.6963 22.3202 13.7152C22.2018 13.7352 22.0467 13.751 21.8046 13.7752L21.9124 14.8532ZM20.6095 15.0642C20.6257 15.052 20.6918 15.0122 20.9238 14.9705C21.1506 14.9297 21.4588 14.8985 21.9124 14.8532L21.8046 13.7752C21.3691 13.8187 21.0107 13.8541 20.7319 13.9043C20.4585 13.9535 20.1805 14.029 19.9527 14.2027L20.6095 15.0642ZM20.4012 15.5673C20.3752 15.3744 20.4547 15.1823 20.6095 15.0642L19.9527 14.2027C19.4883 14.5569 19.2496 15.1331 19.3275 15.7119L20.4012 15.5673ZM21.1732 16.6378C20.8845 16.2849 20.6887 16.045 20.5571 15.8557C20.4226 15.6622 20.4039 15.5872 20.4012 15.5673L19.3275 15.7119C19.3658 15.9959 19.5089 16.2458 19.6676 16.474C19.8291 16.7064 20.0576 16.9851 20.3347 17.3237L21.1732 16.6378ZM21.781 17.5603C21.7256 17.3871 21.6377 17.2403 21.5391 17.102C21.4437 16.968 21.318 16.8148 21.1732 16.6378L20.3347 17.3237C20.4886 17.5119 20.5872 17.6328 20.6569 17.7305C20.7234 17.8239 20.7416 17.8668 20.749 17.8901L21.781 17.5603ZM21.724 18.7013C21.8805 18.3403 21.9007 17.9349 21.781 17.5603L20.749 17.8901C20.789 18.015 20.7822 18.1501 20.7301 18.2704L21.724 18.7013ZM21.0275 19.5587C21.1892 19.397 21.3295 19.2571 21.4378 19.1333C21.5497 19.0054 21.6518 18.8681 21.724 18.7013L20.7301 18.2704C20.7203 18.2929 20.6979 18.3337 20.6224 18.4199C20.5434 18.5103 20.4334 18.6208 20.2614 18.7927L21.0275 19.5587ZM20.0594 20.5268L21.0275 19.5587L20.2614 18.7927L19.2934 19.7608L20.0594 20.5268ZM19.2016 21.2236C19.3684 21.1514 19.5058 21.0493 19.6337 20.9373C19.7577 20.829 19.8975 20.6887 20.0594 20.5268L19.2934 19.7608C19.1213 19.9328 19.0108 20.0429 18.9205 20.122C18.8341 20.1975 18.7933 20.2199 18.7709 20.2297L19.2016 21.2236ZM18.061 21.2806C18.4355 21.4002 18.8407 21.38 19.2016 21.2236L18.7709 20.2297C18.6506 20.2818 18.5155 20.2885 18.3906 20.2486L18.061 21.2806ZM17.1381 20.6725C17.3152 20.8175 17.4684 20.9431 17.6024 21.0387C17.741 21.1373 17.8876 21.2252 18.061 21.2806L18.3906 20.2486C18.3673 20.2411 18.3244 20.2229 18.2311 20.1563C18.1332 20.0867 18.0124 19.9881 17.8242 19.834L17.1381 20.6725ZM16.0672 19.9003C16.0872 19.903 16.1622 19.9218 16.3558 20.0563C16.5451 20.1878 16.7851 20.3838 17.1381 20.6725L17.8242 19.834C17.4854 19.5569 17.2067 19.3283 16.9741 19.1667C16.7458 19.0081 16.4958 18.8649 16.2117 18.8266L16.0672 19.9003ZM15.5643 20.1086C15.6824 19.9539 15.8744 19.8744 16.0672 19.9003L16.2117 18.8266C15.633 18.7488 15.0571 18.9874 14.7031 19.4516L15.5643 20.1086ZM15.3532 21.4121C15.3986 20.9583 15.4298 20.65 15.4706 20.423C15.5124 20.1909 15.5521 20.1247 15.5643 20.1086L14.7031 19.4516C14.5292 19.6794 14.4536 19.9576 14.4044 20.2312C14.3542 20.5099 14.3188 20.8687 14.2752 21.3043L15.3532 21.4121ZM15.1304 22.495C15.2139 22.3334 15.2555 22.1673 15.2836 21.9996C15.3109 21.8372 15.3304 21.6399 15.3532 21.4121L14.2752 21.3043C14.251 21.5464 14.2352 21.7017 14.2152 21.8202C14.1963 21.9333 14.1788 21.9766 14.1677 21.9983L15.1304 22.495ZM14.2839 23.2611C14.6494 23.1165 14.9502 22.8444 15.1304 22.495L14.1677 21.9983C14.1076 22.1148 14.0074 22.2055 13.8855 22.2538L14.2839 23.2611ZM13.1842 23.375C13.4133 23.375 13.6114 23.3753 13.7757 23.3643C13.9454 23.353 14.1147 23.328 14.2839 23.2611L13.8855 22.2538C13.8627 22.2627 13.818 22.2757 13.7035 22.2834C13.5837 22.2913 13.4277 22.2917 13.1842 22.2917V23.375ZM11.8156 23.375H13.1842V22.2917H11.8156V23.375ZM10.7162 23.2611C10.8854 23.3281 11.0546 23.353 11.2243 23.3643C11.3886 23.3753 11.5868 23.375 11.8156 23.375V22.2917C11.5723 22.2917 11.4163 22.2913 11.2965 22.2834C11.1821 22.2757 11.1373 22.2627 11.1145 22.2538L10.7162 23.2611ZM9.86953 22.4949C10.0498 22.8444 10.3506 23.1166 10.7162 23.2611L11.1145 22.2538C10.9927 22.2055 10.8924 22.1148 10.8323 21.9983L9.86953 22.4949ZM9.64687 21.4123C9.66964 21.64 9.68908 21.8372 9.71633 21.9996C9.74449 22.1673 9.78613 22.3333 9.86953 22.4949L10.8323 21.9983C10.8212 21.9765 10.8037 21.9333 10.7848 21.8202C10.7648 21.7018 10.749 21.5466 10.7249 21.3045L9.64687 21.4123ZM9.43567 20.1091C9.44794 20.1251 9.48766 20.1913 9.52942 20.4234C9.57026 20.6503 9.60149 20.9586 9.64687 21.4123L10.7249 21.3045C10.6813 20.8689 10.6458 20.5102 10.5956 20.2315C10.5464 19.958 10.4708 19.6799 10.297 19.4519L9.43567 20.1091ZM8.93282 19.9007C9.12569 19.8749 9.31764 19.9544 9.43567 20.1091L10.297 19.4519C9.94288 18.9878 9.36701 18.7493 8.78841 18.8271L8.93282 19.9007ZM7.8619 20.673C8.21484 20.3842 8.45493 20.1883 8.64424 20.0568C8.83788 19.9222 8.91278 19.9035 8.93282 19.9007L8.78841 18.8271C8.50434 18.8653 8.25425 19.0085 8.026 19.1671C7.79343 19.3288 7.51471 19.5573 7.17592 19.8346L7.8619 20.673ZM6.93896 21.281C7.11226 21.2257 7.25903 21.1378 7.39751 21.0391C7.53158 20.9437 7.68476 20.8179 7.8619 20.673L7.17592 19.8346C6.98763 19.9886 6.8667 20.0872 6.76891 20.1569C6.6755 20.2234 6.63261 20.2417 6.60931 20.249L6.93896 21.281ZM5.79844 21.2242C6.15921 21.3805 6.56442 21.4007 6.93896 21.281L6.60931 20.249C6.48446 20.289 6.34939 20.2822 6.22914 20.2301L5.79844 21.2242ZM4.94056 20.5272C5.10242 20.6891 5.24232 20.8295 5.36622 20.9378C5.49419 21.0497 5.63151 21.1519 5.79844 21.2242L6.22914 20.2301C6.20668 20.2204 6.16582 20.1979 6.07951 20.1225C5.98912 20.0434 5.87862 19.9333 5.70659 19.7612L4.94056 20.5272ZM3.97266 19.5594L4.94056 20.5272L5.70659 19.7612L4.7387 18.7934L3.97266 19.5594ZM3.2758 18.7015C3.34813 18.8684 3.45018 19.0058 3.56213 19.1337C3.67052 19.2577 3.81082 19.3975 3.97266 19.5594L4.7387 18.7934C4.56668 18.6213 4.45656 18.5108 4.37751 18.4205C4.30201 18.3341 4.27956 18.2933 4.26983 18.2709L3.2758 18.7015ZM3.21891 17.561C3.09927 17.9356 3.11948 18.3408 3.2758 18.7015L4.26983 18.2709C4.21772 18.1506 4.21099 18.0155 4.25087 17.8906L3.21891 17.561ZM3.82697 16.6381C3.68202 16.8152 3.55635 16.9684 3.46082 17.1024C3.36216 17.241 3.27428 17.3877 3.21891 17.561L4.25087 17.8906C4.25831 17.8673 4.27658 17.8244 4.34313 17.7311C4.4128 17.6332 4.51137 17.5123 4.66542 17.324L3.82697 16.6381ZM4.59919 15.5672C4.59649 15.5872 4.57776 15.6621 4.4432 15.8558C4.31163 16.0451 4.11573 16.2851 3.82697 16.6381L4.66542 17.324C4.9426 16.9853 5.17115 16.7065 5.33279 16.474C5.49142 16.2458 5.63464 15.9957 5.67284 15.7116L4.59919 15.5672ZM4.39088 15.0643C4.54561 15.1823 4.62512 15.3743 4.59919 15.5672L5.67284 15.7116C5.75068 15.133 5.51213 14.5571 5.04796 14.203L4.39088 15.0643ZM3.08765 14.8532C3.54139 14.8985 3.84966 14.9298 4.07654 14.9706C4.3086 15.0123 4.37482 15.0521 4.39088 15.0643L5.04796 14.203C4.82007 14.0292 4.54198 13.9536 4.26841 13.9044C3.98968 13.8542 3.63099 13.8187 3.19545 13.7752L3.08765 14.8532ZM2.00512 14.6304C2.1668 14.7139 2.33272 14.7555 2.5004 14.7836C2.66274 14.8109 2.85991 14.8303 3.08765 14.8532L3.19545 13.7752C2.95339 13.751 2.7982 13.7352 2.67979 13.7152C2.5667 13.6963 2.52345 13.6788 2.50171 13.6677L2.00512 14.6304ZM1.23883 13.7837C1.3834 14.1494 1.65566 14.4503 2.00512 14.6304L2.50171 13.6677C2.38522 13.6076 2.29447 13.5074 2.24627 13.3855L1.23883 13.7837ZM1.125 12.6845C1.125 12.9134 1.12472 13.1114 1.13569 13.2757C1.14702 13.4453 1.17194 13.6146 1.23883 13.7837L2.24627 13.3855C2.23728 13.3626 2.22426 13.3179 2.21661 13.2035C2.20862 13.0837 2.20833 12.9277 2.20833 12.6845H1.125ZM1.125 11.3157V12.6845H2.20833V11.3157H1.125ZM1.23889 10.2161C1.17196 10.3853 1.14704 10.5546 1.13569 10.7243C1.12472 10.8886 1.125 11.0868 1.125 11.3157H2.20833C2.20833 11.0723 2.20862 10.9163 2.21662 10.7965C2.22427 10.682 2.23729 10.6373 2.24629 10.6145L1.23889 10.2161ZM2.00498 9.36959C1.65564 9.54982 1.38345 9.85056 1.23889 10.2161L2.24629 10.6145C2.29448 10.4927 2.38521 10.3924 2.50166 10.3323L2.00498 9.36959ZM3.08778 9.14686C2.85998 9.16963 2.66276 9.18908 2.50037 9.21634C2.33266 9.24451 2.16669 9.28616 2.00498 9.36959L2.50166 10.3323C2.52341 10.3212 2.56666 10.3037 2.67978 10.2848C2.79823 10.2648 2.95346 10.249 3.19559 10.2249L3.08778 9.14686ZM4.39136 8.9356C4.37528 8.94787 4.30907 8.98761 4.07694 9.02938C3.85 9.07023 3.54162 9.10147 3.08778 9.14686L3.19559 10.2249C3.63125 10.1812 3.99003 10.1458 4.26883 10.0956C4.54246 10.0463 4.82063 9.9707 5.04855 9.79683L4.39136 8.9356ZM4.5996 8.43285C4.62551 8.62568 4.54602 8.81758 4.39136 8.9356L5.04855 9.79683C5.51254 9.44275 5.75101 8.86704 5.67328 8.28859L4.5996 8.43285ZM3.82716 7.36164C4.11601 7.71468 4.31197 7.95482 4.44358 8.1442C4.57819 8.33789 4.59691 8.41281 4.5996 8.43285L5.67328 8.28859C5.6351 8.00443 5.49185 7.75428 5.33319 7.52596C5.17151 7.29332 4.94288 7.01452 4.66562 6.67563L3.82716 7.36164ZM3.2189 6.43832C3.27426 6.61168 3.36217 6.75852 3.46086 6.89706C3.55642 7.03118 3.68215 7.18441 3.82716 7.36164L4.66562 6.67563C4.51149 6.48726 4.41289 6.3663 4.34318 6.26846C4.27661 6.17503 4.25835 6.13212 4.25091 6.1088L3.2189 6.43832ZM3.27576 5.29819C3.11955 5.65885 3.09934 6.0639 3.2189 6.43832L4.25091 6.1088C4.21106 5.98399 4.21779 5.84898 4.26985 5.72876L3.27576 5.29819ZM3.97285 4.43999C3.81094 4.60191 3.67059 4.74186 3.56217 4.86581C3.45018 4.99382 3.3481 5.13118 3.27576 5.29819L4.26985 5.72876C4.27958 5.70629 4.30203 5.66541 4.37756 5.57907C4.45664 5.48866 4.56679 5.37812 4.73888 5.20603L3.97285 4.43999ZM4.94061 3.47224L3.97285 4.43999L4.73888 5.20603L5.70664 4.23826L4.94061 3.47224ZM5.79848 2.77535C5.63155 2.84769 5.49425 2.94974 5.36627 3.06169C5.24237 3.17008 5.10246 3.31039 4.94061 3.47224L5.70664 4.23826C5.87867 4.06624 5.98918 3.95613 6.07955 3.87707C6.16587 3.80156 6.20672 3.77912 6.22918 3.76939L5.79848 2.77535ZM6.939 2.71847C6.56447 2.59882 6.15925 2.61904 5.79848 2.77535L6.22918 3.76939C6.34944 3.71729 6.48451 3.71055 6.60935 3.75043L6.939 2.71847ZM7.86206 3.3266C7.68487 3.18163 7.53168 3.05594 7.39759 2.9604C7.25911 2.86173 7.11231 2.77384 6.939 2.71847L6.60935 3.75043C6.63266 3.75787 6.67556 3.77614 6.76897 3.8427C6.86679 3.91239 6.98773 4.01097 7.17605 4.16505L7.86206 3.3266ZM8.93278 4.09875C8.91276 4.09606 8.83787 4.07732 8.64426 3.94276C8.45498 3.8112 8.21493 3.61531 7.86206 3.3266L7.17605 4.16505C7.51478 4.4422 7.79346 4.67072 8.02598 4.83233C8.25418 4.99094 8.50419 5.13415 8.78819 5.17239L8.93278 4.09875ZM9.43578 3.89041C9.31773 4.04519 9.1257 4.12473 8.93278 4.09875L8.78819 5.17239C9.36697 5.25034 9.94306 5.01171 10.2972 4.54734L9.43578 3.89041ZM9.64688 2.58751C9.60152 3.04112 9.5703 3.3493 9.52949 3.57613C9.48774 3.80814 9.44803 3.87433 9.43578 3.89041L10.2972 4.54734C10.4709 4.31949 10.5465 4.04148 10.5957 3.76798C10.6459 3.48932 10.6813 3.13074 10.7249 2.69532L9.64688 2.58751ZM9.86944 1.50526C9.78609 1.6669 9.74447 1.8328 9.71633 2.00042C9.68908 2.16272 9.66965 2.35984 9.64688 2.58751L10.7249 2.69532C10.749 2.45332 10.7648 2.29818 10.7848 2.17979C10.8037 2.06673 10.8211 2.0235 10.8323 2.00175L9.86944 1.50526ZM10.7164 0.738762C10.3507 0.883343 10.0497 1.15568 9.86944 1.50526L10.8323 2.00175C10.8924 1.88523 10.9927 1.79445 11.1146 1.74625L10.7164 0.738762ZM11.8154 0.625001C11.5866 0.625001 11.3885 0.624719 11.2244 0.635682C11.0547 0.647003 10.8855 0.67192 10.7164 0.738762L11.1146 1.74625C11.1374 1.73726 11.1821 1.72425 11.2965 1.71661C11.4163 1.70862 11.5722 1.70833 11.8154 1.70833V0.625001ZM13.1845 0.625001H11.8154V1.70833H13.1845V0.625001ZM14.2837 0.738826C14.1146 0.671942 13.9453 0.647025 13.7757 0.635693C13.6114 0.624719 13.4134 0.625001 13.1845 0.625001V1.70833C13.4277 1.70833 13.5837 1.70862 13.7035 1.71661C13.8179 1.72426 13.8626 1.73728 13.8855 1.74627L14.2837 0.738826ZM15.1304 1.50512C14.9503 1.15566 14.6494 0.883397 14.2837 0.738826L13.8855 1.74627C14.0074 1.79447 14.1076 1.88522 14.1677 2.0017L15.1304 1.50512ZM16.2917 12C16.2917 14.0941 14.5941 15.7917 12.5 15.7917V16.875C15.1924 16.875 17.375 14.6924 17.375 12H16.2917ZM12.5 8.20833C14.5941 8.20833 16.2917 9.90592 16.2917 12H17.375C17.375 9.30761 15.1924 7.125 12.5 7.125V8.20833ZM8.70833 12C8.70833 9.90592 10.4059 8.20833 12.5 8.20833V7.125C9.80761 7.125 7.625 9.30761 7.625 12H8.70833ZM12.5 15.7917C10.4059 15.7917 8.70833 14.0941 8.70833 12H7.625C7.625 14.6924 9.80761 16.875 12.5 16.875V15.7917Z" fill="black"/>
<path d="M14.8141 2.64156L15.3532 2.58766M15.3532 2.58766C15.3303 2.35992 15.3109 2.16274 15.2836 2.0004C15.2555 1.83272 15.2139 1.6668 15.1304 1.50512M15.3532 2.58766L14.2752 2.69546M15.3532 2.58766C15.3985 3.04139 15.4298 3.34966 15.4706 3.57655C15.5123 3.80861 15.5521 3.87482 15.5643 3.89089M14.6491 1.75341L14.1677 2.0017M14.1677 2.0017L15.1304 1.50512M14.1677 2.0017C14.1788 2.02344 14.1963 2.0667 14.2152 2.17979C14.2352 2.2982 14.251 2.4534 14.2752 2.69546M14.1677 2.0017C14.1076 1.88522 14.0074 1.79447 13.8855 1.74627M15.1337 4.21943L15.5643 3.89089M15.5643 3.89089L14.703 4.54796M15.5643 3.89089C15.6823 4.04561 15.8744 4.12513 16.0672 4.09919M16.1395 4.63602L16.0672 4.09919M16.0672 4.09919L16.2116 5.17284M16.0672 4.09919C16.0872 4.09649 16.1621 4.07777 16.3558 3.94321C16.5451 3.81165 16.7851 3.61575 17.1381 3.327M17.4811 3.74623L17.824 4.16545M17.824 4.16545C17.4853 4.44262 17.2065 4.67118 16.974 4.8328C16.7458 4.99143 16.4957 5.13464 16.2116 5.17284M17.824 4.16545L17.1381 3.327M17.824 4.16545C18.0123 4.0114 18.1332 3.91284 18.2311 3.84317C18.3244 3.77663 18.3673 3.75837 18.3906 3.75093M18.2257 3.23495L18.3906 3.75093M18.3906 3.75093L18.061 2.71898M18.3906 3.75093C18.5154 3.71104 18.6505 3.71778 18.7708 3.76988M18.9861 3.27287L19.2015 2.77586M19.2015 2.77586C18.8408 2.61953 18.4355 2.59931 18.061 2.71898M19.2015 2.77586L18.7708 3.76988M19.2015 2.77586C19.3684 2.84818 19.5057 2.95025 19.6336 3.06219C19.7576 3.17056 19.8975 3.31086 20.0593 3.47271M19.6763 3.85572L19.2933 4.23873M19.2933 4.23873C19.1213 4.06672 19.0108 3.95662 18.9204 3.87756C18.8341 3.80206 18.7933 3.77961 18.7708 3.76988M19.2933 4.23873L20.0593 3.47271M19.2933 4.23873L20.2612 5.20666M20.6443 4.82364L21.0272 4.44062M21.0272 4.44062L20.0593 3.47271M21.0272 4.44062L20.2612 5.20666M21.0272 4.44062C21.1891 4.60247 21.3294 4.74237 21.4378 4.86627C21.5497 4.99424 21.6518 5.13154 21.7242 5.29846M21.2271 5.51381L21.7242 5.29846M21.7242 5.29846L20.7301 5.72918M21.7242 5.29846C21.8805 5.65925 21.9006 6.06449 21.781 6.43903M21.265 6.27419L21.781 6.43903M21.781 6.43903L20.749 6.10936M21.781 6.43903C21.7257 6.61232 21.6377 6.75909 21.5391 6.89757C21.4436 7.03164 21.3179 7.1848 21.173 7.36195M20.7537 7.01894L20.3345 6.67594M20.3345 6.67594C20.4885 6.48765 20.5871 6.36675 20.6567 6.26895C20.7234 6.17556 20.7416 6.13268 20.749 6.10936M20.3345 6.67594L21.173 7.36195M20.3345 6.67594C20.0573 7.01472 19.8288 7.29343 19.6671 7.526C19.5085 7.75424 19.3653 8.00432 19.3271 8.28839M19.864 8.36061L19.3271 8.28839M19.3271 8.28839L20.4007 8.43281M19.3271 8.28839C19.2493 8.867 19.4878 9.44289 19.9519 9.79699M20.2805 9.36634L19.9519 9.79699M19.9519 9.79699L20.6091 8.93568M19.9519 9.79699C20.1799 9.97081 20.458 10.0464 20.7315 10.0956C21.0102 10.1458 21.3689 10.1813 21.8045 10.2249M21.8584 9.68584L21.9123 9.14686M21.9123 9.14686C21.4585 9.10149 21.1503 9.07026 20.9234 9.02942C20.6913 8.98766 20.6251 8.94794 20.6091 8.93568M21.9123 9.14686L21.8045 10.2249M21.9123 9.14686C22.14 9.16964 22.3372 9.18908 22.4996 9.21633C22.6673 9.24449 22.8333 9.28613 22.9949 9.36953M22.7466 9.85088L22.9949 9.36953M22.9949 9.36953L22.4983 10.3323M22.9949 9.36953C23.3444 9.54977 23.6166 9.85056 23.7611 10.2162M23.2574 10.4154L23.7611 10.2162M23.7611 10.2162L22.7538 10.6145M23.7611 10.2162C23.8281 10.3854 23.853 10.5546 23.8643 10.7243C23.8753 10.8886 23.875 11.0868 23.875 11.3156M23.2575 13.5845L22.7538 13.3854M22.7538 13.3854C22.7627 13.3626 22.7757 13.3179 22.7834 13.2035C22.7913 13.0837 22.7917 12.9278 22.7917 12.6846M22.7538 13.3854L23.7613 13.7836M22.7538 13.3854C22.7055 13.5074 22.6148 13.6076 22.4983 13.6677M22.7465 14.1491L22.9948 14.6306M22.9948 14.6306C23.3443 14.4503 23.6166 14.1493 23.7613 13.7836M22.9948 14.6306L22.4983 13.6677M22.9948 14.6306C22.8332 14.7139 22.6672 14.7556 22.4996 14.7836C22.3372 14.8109 22.1402 14.8303 21.9124 14.8532M21.8585 14.3141L21.8046 13.7752M21.8585 14.3141L21.7694 13.7798M21.8585 14.3141L21.9124 14.8532M21.8585 14.3141L21.9475 14.8484M21.8046 13.7752L21.787 13.7769L21.7694 13.7798M21.8046 13.7752C22.0467 13.751 22.2018 13.7352 22.3202 13.7152C22.4333 13.6963 22.4765 13.679 22.4983 13.6677M21.8046 13.7752L21.9124 14.8532M21.8046 13.7752C21.3691 13.8187 21.0107 13.8541 20.7319 13.9043C20.4585 13.9535 20.1805 14.029 19.9527 14.2027M21.7694 13.7798L21.9475 14.8484M21.9124 14.8532L21.9301 14.8513L21.9475 14.8484M21.9124 14.8532C21.4588 14.8985 21.1506 14.9297 20.9238 14.9705C20.6918 15.0122 20.6257 15.052 20.6095 15.0642M20.281 14.6335L19.9527 14.2027M19.9527 14.2027L20.6095 15.0642M19.9527 14.2027C19.4883 14.5569 19.2496 15.1331 19.3275 15.7119M19.8644 15.6396L19.3275 15.7119M19.3275 15.7119L20.4012 15.5673M19.3275 15.7119C19.3658 15.9959 19.509 16.2458 19.6676 16.474C19.8291 16.7064 20.0576 16.9851 20.3347 17.3237M20.7539 16.9807L20.3347 17.3237M20.3347 17.3237L21.1732 16.6378M20.3347 17.3237C20.4886 17.5119 20.5872 17.6328 20.6569 17.7305C20.7234 17.8239 20.7416 17.8668 20.749 17.8901M21.265 17.7252L20.749 17.8901M20.749 17.8901L21.781 17.5603M20.749 17.8901C20.789 18.015 20.7822 18.1501 20.7301 18.2704M21.2271 18.4858L20.7301 18.2704M20.7301 18.2704L21.724 18.7013M20.7301 18.2704C20.7203 18.2929 20.6979 18.3337 20.6224 18.4199C20.5434 18.5103 20.4334 18.6208 20.2614 18.7927M20.6444 19.1758L21.0275 19.5587M21.0275 19.5587C21.1892 19.397 21.3295 19.2571 21.4378 19.1333C21.5497 19.0054 21.6518 18.8681 21.724 18.7013M21.0275 19.5587L20.2614 18.7927M21.0275 19.5587L20.0594 20.5268M19.6763 20.1439L19.2934 19.7608M19.2934 19.7608L20.2614 18.7927M19.2934 19.7608L20.0594 20.5268M19.2934 19.7608C19.1213 19.9328 19.0108 20.0429 18.9205 20.122C18.8341 20.1975 18.7933 20.2199 18.7709 20.2297M18.9862 20.7267L19.2016 21.2236M19.2016 21.2236C19.3684 21.1513 19.5058 21.0493 19.6337 20.9373C19.7577 20.829 19.8975 20.6887 20.0594 20.5268M19.2016 21.2236L18.7709 20.2297M19.2016 21.2236C18.8408 21.38 18.4355 21.4002 18.061 21.2806M18.2259 20.7646L18.061 21.2806M18.061 21.2806L18.3906 20.2486M18.061 21.2806C17.8876 21.2252 17.741 21.1373 17.6024 21.0387C17.4684 20.9431 17.3152 20.8175 17.1381 20.6725M17.4811 20.2533L17.8242 19.834M17.4811 20.2533L17.8195 19.8303M17.4811 20.2533L17.1381 20.6725M17.4811 20.2533L17.1427 20.6762M17.8242 19.834L17.8195 19.8303M17.8242 19.834C18.0124 19.9881 18.1332 20.0867 18.2311 20.1563C18.3244 20.2229 18.3673 20.2411 18.3906 20.2486M17.8242 19.834L17.1381 20.6725M17.8242 19.834C17.4854 19.5569 17.2067 19.3283 16.9741 19.1667C16.7458 19.0081 16.4958 18.8649 16.2117 18.8266M17.8195 19.8303L17.1427 20.6762M17.1381 20.6725L17.1427 20.6762M17.1381 20.6725C16.7851 20.3838 16.5451 20.1878 16.3558 20.0563C16.1622 19.9218 16.0872 19.903 16.0672 19.9003M16.1395 19.3635L16.2117 18.8266M16.2117 18.8266L16.0672 19.9003M16.2117 18.8266C15.633 18.7488 15.0571 18.9874 14.7031 19.4516M15.1337 19.7801L15.5643 20.1086M15.5643 20.1086C15.6824 19.9539 15.8744 19.8744 16.0672 19.9003M15.5643 20.1086L14.7031 19.4516M15.5643 20.1086C15.5521 20.1247 15.5124 20.1909 15.4706 20.423C15.4298 20.65 15.3986 20.9583 15.3532 21.4121M14.8142 21.3582L14.2752 21.3043M14.2752 21.3043C14.3188 20.8687 14.3542 20.5099 14.4044 20.2312C14.4536 19.9576 14.5292 19.6794 14.7031 19.4516M14.2752 21.3043L15.3532 21.4121M14.2752 21.3043C14.251 21.5464 14.2352 21.7017 14.2152 21.8202C14.1963 21.9333 14.1788 21.9766 14.1677 21.9983M14.649 22.2467L14.1677 21.9983M14.1677 21.9983L15.1304 22.495M14.1677 21.9983C14.1076 22.1148 14.0074 22.2055 13.8855 22.2538M14.0847 22.7574L13.8855 22.2538M13.8855 22.2538L14.2839 23.2611M13.8855 22.2538C13.8627 22.2627 13.818 22.2757 13.7035 22.2834C13.5837 22.2913 13.4277 22.2917 13.1842 22.2917M10.9154 22.7574L11.1145 22.2538M11.1145 22.2538C11.1373 22.2627 11.1821 22.2757 11.2965 22.2834C11.4163 22.2913 11.5723 22.2917 11.8156 22.2917M11.1145 22.2538L10.7162 23.2611M11.1145 22.2538C10.9927 22.2055 10.8924 22.1148 10.8323 21.9983M10.3509 22.2466L10.8323 21.9983M10.8323 21.9983L9.86953 22.4949M10.8323 21.9983C10.8212 21.9765 10.8037 21.9333 10.7848 21.8202C10.7648 21.7018 10.749 21.5466 10.7249 21.3045M10.1858 21.3584L9.64687 21.4123M9.64687 21.4123C9.66964 21.64 9.68908 21.8372 9.71633 21.9996C9.74449 22.1673 9.78613 22.3333 9.86953 22.4949M9.64687 21.4123L10.7249 21.3045M9.64687 21.4123C9.60149 20.9586 9.57026 20.6503 9.52942 20.4234C9.48766 20.1913 9.44794 20.1251 9.43567 20.1091M9.86633 19.7805L9.43567 20.1091M9.43567 20.1091L10.297 19.4519M9.43567 20.1091C9.31764 19.9544 9.12569 19.8749 8.93282 19.9007M8.86062 19.364L8.78841 18.8271M8.78841 18.8271C9.36701 18.7493 9.94288 18.9878 10.297 19.4519M8.78841 18.8271L8.93282 19.9007M8.78841 18.8271C8.50434 18.8653 8.25426 19.0085 8.026 19.1671C7.79343 19.3288 7.51471 19.5573 7.17592 19.8346M7.51892 20.2538L7.17592 19.8346M7.51892 20.2538L7.15905 19.849M7.51892 20.2538L7.8619 20.673M7.51892 20.2538L7.87876 20.6587M7.17592 19.8346L7.16734 19.8416L7.15905 19.849M7.17592 19.8346L7.8619 20.673M7.17592 19.8346C6.98763 19.9886 6.8667 20.0872 6.76891 20.1569C6.6755 20.2234 6.63261 20.2417 6.60931 20.249M7.15905 19.849L7.87876 20.6587M7.8619 20.673L7.87048 20.666L7.87876 20.6587M7.8619 20.673C8.21484 20.3842 8.45493 20.1883 8.64424 20.0568C8.83788 19.9222 8.91278 19.9035 8.93282 19.9007M7.8619 20.673C7.68476 20.8179 7.53158 20.9437 7.39751 21.0391C7.25903 21.1378 7.11226 21.2257 6.93896 21.281M6.77413 20.765L6.93896 21.281M6.93896 21.281L6.60931 20.249M6.93896 21.281C6.56442 21.4007 6.15921 21.3805 5.79844 21.2242M6.01378 20.7271L5.79844 21.2242M5.79844 21.2242L6.22914 20.2301M5.79844 21.2242C5.6315 21.1519 5.49419 21.0497 5.36622 20.9378C5.24232 20.8295 5.10242 20.6891 4.94055 20.5272M5.32358 20.1443L5.70659 19.7612M5.70659 19.7612C5.87862 19.9333 5.98912 20.0434 6.07951 20.1225C6.16582 20.1979 6.20668 20.2204 6.22914 20.2301M5.70659 19.7612L4.94055 20.5272M5.70659 19.7612L4.7387 18.7934M4.35569 19.1763L3.97266 19.5594M3.97266 19.5594L4.94055 20.5272M3.97266 19.5594L4.7387 18.7934M3.97266 19.5594C3.81082 19.3975 3.67052 19.2577 3.56213 19.1337C3.45018 19.0058 3.34813 18.8684 3.2758 18.7015M3.77282 18.4862L4.26983 18.2709M4.26983 18.2709C4.27956 18.2933 4.30201 18.3341 4.37751 18.4205C4.45656 18.5108 4.56668 18.6213 4.7387 18.7934M4.26983 18.2709L3.2758 18.7015M4.26983 18.2709C4.21772 18.1506 4.21099 18.0155 4.25087 17.8906M3.73489 17.7259L4.25087 17.8906M4.25087 17.8906L3.21891 17.561M4.25087 17.8906C4.25831 17.8673 4.27658 17.8244 4.34313 17.7311C4.4128 17.6332 4.51137 17.5123 4.66542 17.324M4.24619 16.9811L4.66542 17.324M4.66542 17.324L3.82697 16.6381M4.66542 17.324C4.9426 16.9853 5.17115 16.7065 5.33279 16.474C5.49142 16.2458 5.63464 15.9957 5.67284 15.7116M5.13601 15.6394L5.67284 15.7116M5.67284 15.7116L4.59919 15.5672M5.67284 15.7116C5.75068 15.133 5.51213 14.5571 5.04796 14.203M4.71941 14.6337L5.04796 14.203M5.04796 14.203L4.39088 15.0643M5.04796 14.203C4.82007 14.0292 4.54197 13.9536 4.26841 13.9044C3.98968 13.8542 3.63099 13.8187 3.19545 13.7752M3.14155 14.3141L3.08765 14.8532M3.08765 14.8532C3.54139 14.8985 3.84966 14.9298 4.07654 14.9706C4.3086 15.0123 4.37482 15.0521 4.39088 15.0643M3.08765 14.8532L3.19545 13.7752M3.08765 14.8532C2.8599 14.8303 2.66274 14.8109 2.5004 14.7836C2.33272 14.7555 2.1668 14.7139 2.00512 14.6304M2.25341 14.1491L2.50171 13.6677M2.50171 13.6677C2.52345 13.6788 2.5667 13.6963 2.67979 13.7152C2.7982 13.7352 2.95339 13.751 3.19545 13.7752M2.50171 13.6677L2.00512 14.6304M2.50171 13.6677C2.38522 13.6076 2.29447 13.5074 2.24627 13.3855M1.74255 13.5846L1.23883 13.7837M1.23883 13.7837C1.3834 14.1494 1.65566 14.4503 2.00512 14.6304M1.23883 13.7837L2.24627 13.3855M1.23883 13.7837C1.17194 13.6146 1.14702 13.4453 1.13569 13.2757C1.12472 13.1114 1.125 12.9134 1.125 12.6845M1.74259 10.4153L1.23889 10.2161M1.23889 10.2161C1.17196 10.3853 1.14704 10.5546 1.13569 10.7243C1.12472 10.8886 1.125 11.0868 1.125 11.3157M1.23889 10.2161L2.24629 10.6145M1.23889 10.2161C1.38345 9.85056 1.65564 9.54982 2.00498 9.36959M2.25331 9.85099L2.00498 9.36959M2.00498 9.36959L2.50166 10.3323M2.00498 9.36959C2.16669 9.28616 2.33266 9.24451 2.50037 9.21634C2.66276 9.18908 2.85998 9.16963 3.08778 9.14686M3.14168 9.68583V9.14416M3.14168 9.68583L3.08778 9.14686M3.14168 9.68583L3.14169 10.2275M3.14168 9.68583L3.19559 10.2249M3.14168 9.14416H3.11466L3.08778 9.14686M3.14168 9.14416L3.14169 10.2275M3.08778 9.14686L3.19559 10.2249M3.08778 9.14686C3.54162 9.10147 3.85 9.07023 4.07694 9.02938C4.30907 8.98761 4.37528 8.94787 4.39136 8.9356M3.14169 10.2275H3.16871L3.19559 10.2249M3.19559 10.2249C2.95346 10.249 2.79823 10.2648 2.67978 10.2848C2.56666 10.3037 2.52341 10.3212 2.50166 10.3323M3.19559 10.2249C3.63125 10.1812 3.99003 10.1458 4.26883 10.0956C4.54246 10.0463 4.82063 9.9707 5.04855 9.79683M4.71996 9.36621L4.39136 8.9356M4.39136 8.9356L5.04855 9.79683M4.39136 8.9356C4.54602 8.81758 4.62551 8.62568 4.5996 8.43285M5.13644 8.36072L5.67328 8.28859M5.67328 8.28859C5.75101 8.86704 5.51254 9.44275 5.04855 9.79683M5.67328 8.28859L4.5996 8.43285M5.67328 8.28859C5.6351 8.00443 5.49185 7.75428 5.33319 7.52596C5.17151 7.29332 4.94288 7.01452 4.66562 6.67563M4.24639 7.01864L4.66562 6.67563M4.66562 6.67563L3.82716 7.36164M4.66562 6.67563C4.51149 6.48726 4.41289 6.3663 4.34318 6.26846C4.27661 6.17503 4.25835 6.13212 4.2509 6.1088M3.7349 6.27355L4.2509 6.1088M4.2509 6.1088L3.2189 6.43832M4.2509 6.1088C4.21106 5.98399 4.21779 5.84898 4.26985 5.72876M3.77281 5.51347L3.27576 5.29819M3.27576 5.29819C3.11955 5.65885 3.09934 6.0639 3.2189 6.43832M3.27576 5.29819L4.26985 5.72876M3.27576 5.29819C3.3481 5.13118 3.45018 4.99382 3.56217 4.86581C3.67059 4.74186 3.81094 4.60191 3.97285 4.43999M4.35586 4.82302L4.73888 5.20603M4.73888 5.20603C4.56679 5.37811 4.45664 5.48866 4.37756 5.57907C4.30203 5.66541 4.27958 5.70629 4.26985 5.72876M4.73888 5.20603L3.97285 4.43999M4.73888 5.20603L5.70664 4.23826M5.32362 3.85525L4.94061 3.47224M4.94061 3.47224L3.97285 4.43999M4.94061 3.47224L5.70664 4.23826M4.94061 3.47224C5.10246 3.31039 5.24237 3.17008 5.36627 3.06169C5.49425 2.94974 5.63155 2.84769 5.79848 2.77535M6.01384 3.27238L5.79848 2.77535M5.79848 2.77535L6.22918 3.76939M5.79848 2.77535C6.15925 2.61904 6.56447 2.59882 6.939 2.71847M6.77418 3.23445L6.939 2.71847M6.939 2.71847L6.60935 3.75043M6.939 2.71847C7.11231 2.77384 7.2591 2.86173 7.39759 2.9604C7.53168 3.05594 7.68487 3.18163 7.86206 3.3266M7.51905 3.74582L7.86206 3.3266M7.86206 3.3266L7.17605 4.16505M7.86206 3.3266C8.21493 3.61531 8.45498 3.8112 8.64426 3.94276C8.83787 4.07732 8.91276 4.09606 8.93278 4.09875M8.86048 4.63558L8.93278 4.09875M8.93278 4.09875L8.78819 5.17239M8.93278 4.09875C9.1257 4.12473 9.31773 4.04519 9.43578 3.89041M9.86649 4.21887L9.43578 3.89041M9.43578 3.89041L10.2972 4.54734M9.43578 3.89041C9.44803 3.87433 9.48774 3.80814 9.52949 3.57613C9.5703 3.3493 9.60152 3.04112 9.64688 2.58751M10.1859 2.64142L10.7249 2.69532M10.7249 2.69532C10.6813 3.13074 10.6459 3.48932 10.5957 3.76798C10.5465 4.04148 10.4709 4.31949 10.2972 4.54734M10.7249 2.69532L9.64688 2.58751M10.7249 2.69532C10.749 2.45332 10.7648 2.29818 10.7848 2.17979C10.8037 2.06673 10.8211 2.0235 10.8323 2.00175M10.3509 1.75351L9.86944 1.50526M9.86944 1.50526C9.78609 1.6669 9.74447 1.8328 9.71633 2.00042C9.68908 2.16272 9.66965 2.35984 9.64688 2.58751M9.86944 1.50526L10.8323 2.00175M9.86944 1.50526C10.0497 1.15568 10.3507 0.883343 10.7164 0.738762M10.9155 1.24251L11.1146 1.74625M11.1146 1.74625C10.9927 1.79445 10.8924 1.88523 10.8323 2.00175M11.1146 1.74625L10.7164 0.738762M11.1146 1.74625C11.1374 1.73726 11.1821 1.72425 11.2965 1.71661C11.4163 1.70862 11.5722 1.70833 11.8154 1.70833M14.0846 1.24255L14.2837 0.738827M14.2837 0.738827C14.1146 0.671941 13.9453 0.647025 13.7757 0.635693C13.6114 0.624719 13.4134 0.625001 13.1845 0.625001M14.2837 0.738827L13.8855 1.74627M14.2837 0.738827C14.6494 0.883397 14.9503 1.15566 15.1304 1.50512M14.2752 2.69546C14.3187 3.131 14.3542 3.48968 14.4044 3.76841C14.4536 4.04197 14.5292 4.32007 14.703 4.54796M14.703 4.54796C15.0571 5.01215 15.633 5.25069 16.2116 5.17284M17.1381 3.327C17.3152 3.18207 17.4683 3.05639 17.6024 2.96087C17.7408 2.86221 17.8876 2.77433 18.061 2.71898M20.2612 5.20666C20.4333 5.37868 20.5433 5.48918 20.6224 5.57955C20.6979 5.66586 20.7203 5.70672 20.7301 5.72918M20.7301 5.72918C20.7822 5.84944 20.7889 5.98451 20.749 6.10936M21.173 7.36195C20.8842 7.71488 20.6883 7.95494 20.5568 8.14424C20.4222 8.33788 20.4035 8.41278 20.4007 8.43281M20.4007 8.43281C20.3749 8.62568 20.4543 8.81764 20.6091 8.93568M21.8045 10.2249C22.0466 10.249 22.2018 10.2648 22.3202 10.2848C22.4333 10.3037 22.4765 10.3212 22.4983 10.3323M22.4983 10.3323C22.6148 10.3924 22.7055 10.4927 22.7538 10.6145M22.7538 10.6145C22.7627 10.6373 22.7757 10.6821 22.7834 10.7965C22.7913 10.9163 22.7917 11.0723 22.7917 11.3156M23.875 11.3156H22.7917M23.875 11.3156V12.6846M22.7917 11.3156V12.6846M23.875 12.6846H22.7917M23.875 12.6846C23.875 12.9134 23.8753 13.1115 23.8643 13.2756C23.853 13.4453 23.8281 13.6145 23.7613 13.7836M20.6095 15.0642C20.4547 15.1823 20.3752 15.3744 20.4012 15.5673M20.4012 15.5673C20.4039 15.5872 20.4226 15.6622 20.5571 15.8557C20.6887 16.045 20.8845 16.2849 21.1732 16.6378M21.1732 16.6378C21.318 16.8148 21.4437 16.968 21.5391 17.102C21.6377 17.2403 21.7256 17.3871 21.781 17.5603M21.781 17.5603C21.9007 17.9349 21.8805 18.3403 21.724 18.7013M18.7709 20.2297C18.6506 20.2818 18.5155 20.2885 18.3906 20.2486M15.3532 21.4121C15.3304 21.6399 15.3109 21.8372 15.2836 21.9996C15.2555 22.1673 15.2139 22.3334 15.1304 22.495M15.1304 22.495C14.9502 22.8444 14.6494 23.1165 14.2839 23.2611M14.2839 23.2611C14.1147 23.328 13.9454 23.353 13.7757 23.3643C13.6114 23.3753 13.4133 23.375 13.1842 23.375M13.1842 23.375V22.2917M13.1842 23.375H11.8156M13.1842 22.2917H11.8156M11.8156 23.375V22.2917M11.8156 23.375C11.5868 23.375 11.3886 23.3753 11.2243 23.3643C11.0546 23.353 10.8854 23.3281 10.7162 23.2611M10.7162 23.2611C10.3506 23.1166 10.0498 22.8444 9.86953 22.4949M10.7249 21.3045C10.6813 20.8689 10.6458 20.5102 10.5956 20.2315C10.5464 19.958 10.4708 19.6799 10.297 19.4519M6.60931 20.249C6.48446 20.289 6.34939 20.2822 6.22914 20.2301M3.2758 18.7015C3.11948 18.3408 3.09927 17.9356 3.21891 17.561M3.21891 17.561C3.27428 17.3877 3.36216 17.241 3.46082 17.1024C3.55635 16.9684 3.68202 16.8152 3.82697 16.6381M3.82697 16.6381C4.11573 16.2851 4.31163 16.0451 4.4432 15.8558C4.57776 15.6621 4.59649 15.5872 4.59919 15.5672M4.59919 15.5672C4.62512 15.3743 4.54561 15.1823 4.39088 15.0643M2.24627 13.3855C2.23728 13.3626 2.22426 13.3179 2.21661 13.2035C2.20862 13.0837 2.20833 12.9277 2.20833 12.6845M1.125 12.6845H2.20833M1.125 12.6845V11.3157M2.20833 12.6845V11.3157M1.125 11.3157H2.20833M2.20833 11.3157C2.20833 11.0723 2.20862 10.9163 2.21662 10.7965C2.22427 10.682 2.23729 10.6373 2.24629 10.6145M2.24629 10.6145C2.29448 10.4927 2.38521 10.3924 2.50166 10.3323M4.5996 8.43285C4.59691 8.41281 4.57819 8.33789 4.44358 8.1442C4.31197 7.95482 4.11601 7.71468 3.82716 7.36164M3.82716 7.36164C3.68215 7.18441 3.55642 7.03118 3.46086 6.89706C3.36217 6.75852 3.27426 6.61168 3.2189 6.43832M5.70664 4.23826C5.87867 4.06624 5.98918 3.95613 6.07955 3.87707C6.16587 3.80156 6.20672 3.77912 6.22918 3.76939M6.22918 3.76939C6.34944 3.71729 6.48451 3.71055 6.60935 3.75043M6.60935 3.75043C6.63266 3.75787 6.67556 3.77614 6.76897 3.8427C6.86679 3.91239 6.98773 4.01097 7.17605 4.16505M7.17605 4.16505C7.51478 4.4422 7.79346 4.67072 8.02598 4.83233C8.25418 4.99094 8.50419 5.13415 8.78819 5.17239M8.78819 5.17239C9.36697 5.25034 9.94306 5.01171 10.2972 4.54734M10.7164 0.738762C10.8855 0.67192 11.0547 0.647003 11.2244 0.635682C11.3885 0.624719 11.5866 0.625001 11.8154 0.625001M11.8154 0.625001V1.70833M11.8154 0.625001H13.1845M11.8154 1.70833H13.1845M13.1845 0.625001V1.70833M13.1845 1.70833C13.4277 1.70833 13.5837 1.70862 13.7035 1.71661C13.8179 1.72426 13.8626 1.73728 13.8855 1.74627M16.2917 12C16.2917 14.0941 14.5941 15.7917 12.5 15.7917M16.2917 12H17.375M16.2917 12C16.2917 9.90592 14.5941 8.20833 12.5 8.20833M12.5 15.7917V16.875M12.5 15.7917C10.4059 15.7917 8.70833 14.0941 8.70833 12M12.5 16.875C15.1924 16.875 17.375 14.6924 17.375 12M12.5 16.875C9.80761 16.875 7.625 14.6924 7.625 12M17.375 12C17.375 9.30761 15.1924 7.125 12.5 7.125M12.5 8.20833V7.125M12.5 8.20833C10.4059 8.20833 8.70833 9.90592 8.70833 12M12.5 7.125C9.80761 7.125 7.625 9.30761 7.625 12M8.70833 12H7.625" stroke="black" stroke-width="0.565"/>
</svg>
